<svg xmlns="http://www.w3.org/2000/svg" xmlns:xlink="http://www.w3.org/1999/xlink" xmlns:s="https://github.com/nturley/netlistsvg" width="214.97399999999996" height="335.785">
  <style>svg {
    stroke: #000;
    fill: none;
    stroke-linejoin: round;
    stroke-linecap: round;
  }
  text {
    fill: #000;
    stroke: none;
    font-size: 10px;
    font-weight: bold;
    font-family: "Courier New", monospace;
  }
  .skidl_text {
    fill: #999;
    stroke: none;
    font-weight: bold;
    font-family: consolas, "Courier New", monospace;
  }
  .pin_num_text {
      fill: #840000;
  }
  .pin_name_text {
      fill: #008484;
  }
  .net_name_text {
      font-style: italic;
      fill: #840084;
  }
  .part_text {
      fill: #840000;
  }
  .part_ref_text {
      fill: #008484;
  }
  .part_name_text {
      fill: #008484;
  }
  .pen_fill {
      fill: #840000;
  }
  .background_fill {
      fill: #FFFFC2
  }
  .nodelabel {
    text-anchor: middle;
  }
  .inputPortLabel {
    text-anchor: end;
  }
  .splitjoinBody {
    fill: #000;
  }
  .symbol {
    stroke-linejoin: round;
    stroke-linecap: round;
    stroke: #840000;
  }
  .detail {
    stroke-linejoin: round;
    stroke-linecap: round;
    fill: #000;
  }</style>
  <g s:type="C_Small_1_" s:width="68.275" s:height="48.768" transform="translate(12,274.894)" id="cell_C1">
    <s:alias val="C_Small_1_"/>
    <polyline points="0.000,19.507 29.261,19.507" style="stroke-width:2.926" class="cell_C1 symbol none"/>
    <polyline points="0.000,29.261 29.261,29.261" style="stroke-width:3.170" class="cell_C1 symbol none"/>
    <polyline points="14.630,0.000 14.630,19.507" style="stroke-width:0.960" class="cell_C1 symbol none"/>
    <text class="pin_num_text" x="14.630" y="19.507" transform="rotate(-90 14.630 19.507)" style="font-size:12.192" dominant-baseline="" text-anchor="start">  1</text>
    <text class="pin_name_text" x="14.630" y="19.507" transform="rotate(-90 14.630 19.507)" style="font-size:12.192" dominant-baseline="central" text-anchor="end">~  </text>
    <g s:x="14.630" s:y="0.000" s:pid="1" s:position="top"/>
    <polyline points="14.630,48.768 14.630,29.261" style="stroke-width:0.960" class="cell_C1 symbol none"/>
    <text class="pin_num_text" x="14.630" y="29.261" transform="rotate(-90 14.630 29.261)" style="font-size:12.192" dominant-baseline="" text-anchor="end">2  </text>
    <text class="pin_name_text" x="14.630" y="29.261" transform="rotate(-90 14.630 29.261)" style="font-size:12.192" dominant-baseline="central" text-anchor="start">  ~</text>
    <g s:x="14.630" s:y="48.768" s:pid="2" s:position="bottom"/>
    <text class="part_ref_text" x="17.069" y="7.315" transform="rotate(0 17.069 7.315)" style="font-size:12.192" dominant-baseline="central" text-anchor="start" s:attribute="ref">C1</text>
    <text class="part_name_text" x="17.069" y="43.891" transform="rotate(0 17.069 43.891)" style="font-size:12.192" dominant-baseline="central" text-anchor="start" s:attribute="value">1e-06</text>
  </g>
  <g s:type="L_Small_1_" s:width="62.179" s:height="48.768" transform="translate(22.972,92.59)" id="cell_L1">
    <s:alias val="L_Small_1_"/>
    <path d="M 3.658 4.877 A 4.877 4.877 0 0 1 3.658 14.630" style="stroke-width:0.960" class="cell_L1 symbol none"/>
    <path d="M 3.658 14.630 A 4.877 4.877 0 0 1 3.658 24.384" style="stroke-width:0.960" class="cell_L1 symbol none"/>
    <path d="M 3.658 24.384 A 4.877 4.877 0 0 1 3.658 34.138" style="stroke-width:0.960" class="cell_L1 symbol none"/>
    <path d="M 3.658 34.138 A 4.877 4.877 0 0 1 3.658 43.891" style="stroke-width:0.960" class="cell_L1 symbol none"/>
    <polyline points="3.658,0.000 3.658,4.877" style="stroke-width:0.960" class="cell_L1 symbol none"/>
    <text class="pin_num_text" x="3.658" y="4.877" transform="rotate(-90 3.658 4.877)" style="font-size:12.192" dominant-baseline="" text-anchor="start">  1</text>
    <text class="pin_name_text" x="3.658" y="4.877" transform="rotate(-90 3.658 4.877)" style="font-size:12.192" dominant-baseline="central" text-anchor="end">~  </text>
    <g s:x="3.658" s:y="0.000" s:pid="1" s:position="top"/>
    <polyline points="3.658,48.768 3.658,43.891" style="stroke-width:0.960" class="cell_L1 symbol none"/>
    <text class="pin_num_text" x="3.658" y="43.891" transform="rotate(-90 3.658 43.891)" style="font-size:12.192" dominant-baseline="" text-anchor="end">2  </text>
    <text class="pin_name_text" x="3.658" y="43.891" transform="rotate(-90 3.658 43.891)" style="font-size:12.192" dominant-baseline="central" text-anchor="start">  ~</text>
    <g s:x="3.658" s:y="48.768" s:pid="2" s:position="bottom"/>
    <text class="part_ref_text" x="10.973" y="14.630" transform="rotate(0 10.973 14.630)" style="font-size:12.192" dominant-baseline="central" text-anchor="start" s:attribute="ref">L1</text>
    <text class="part_name_text" x="10.973" y="34.138" transform="rotate(0 10.973 34.138)" style="font-size:12.192" dominant-baseline="central" text-anchor="start" s:attribute="value">0.001</text>
  </g>
  <g s:type="R_Small_1_" s:width="28.042" s:height="75.590" transform="translate(36.63,12)" id="cell_R1">
    <s:alias val="R_Small_1_"/>
    <rect x="0.000" y="7.315" width="14.630" height="34.138" style="stroke-width:1.951" class="cell_R1 symbol none"/>
    <polyline points="7.315,0.000 7.315,7.315" style="stroke-width:0.960" class="cell_R1 symbol none"/>
    <text class="pin_num_text" x="7.315" y="7.315" transform="rotate(-90 7.315 7.315)" style="font-size:12.192" dominant-baseline="" text-anchor="start">  1</text>
    <text class="pin_name_text" x="7.315" y="7.315" transform="rotate(-90 7.315 7.315)" style="font-size:12.192" dominant-baseline="central" text-anchor="end">~  </text>
    <g s:x="7.315" s:y="0.000" s:pid="1" s:position="top"/>
    <polyline points="7.315,48.768 7.315,41.453" style="stroke-width:0.960" class="cell_R1 symbol none"/>
    <text class="pin_num_text" x="7.315" y="41.453" transform="rotate(-90 7.315 41.453)" style="font-size:12.192" dominant-baseline="" text-anchor="end">2  </text>
    <text class="pin_name_text" x="7.315" y="41.453" transform="rotate(-90 7.315 41.453)" style="font-size:12.192" dominant-baseline="central" text-anchor="start">  ~</text>
    <g s:x="7.315" s:y="48.768" s:pid="2" s:position="bottom"/>
    <text class="part_ref_text" x="7.315" y="24.384" transform="rotate(-90 7.315 24.384)" style="font-size:9.754" dominant-baseline="central" text-anchor="end" s:attribute="ref">R1</text>
    <text class="part_name_text" x="24.384" y="24.384" transform="rotate(-90 24.384 24.384)" style="font-size:12.192" dominant-baseline="central" text-anchor="end" s:attribute="value">100</text>
  </g>
  <g s:type="LM358_1_" s:width="146.304" s:height="104.851" transform="translate(46.63,148.70000000000002)" id="cell_U1A">
    <s:alias val="LM358_1_"/>
    <polyline points="24.384,3.658 121.920,52.426 24.384,101.194 24.384,3.658" style="stroke-width:2.438" class="cell_U1A symbol background"/>
    <polyline points="0.000,28.042 24.384,28.042" style="stroke-width:0.960" class="cell_U1A symbol none"/>
    <text class="pin_num_text" x="24.384" y="28.042" transform="rotate(0 24.384 28.042)" style="font-size:12.192" dominant-baseline="" text-anchor="end">3  </text>
    <text class="pin_name_text" x="24.384" y="28.042" transform="rotate(0 24.384 28.042)" style="font-size:12.192" dominant-baseline="central" text-anchor="start">  +</text>
    <g s:x="0.000" s:y="28.042" s:pid="3" s:position="left"/>
    <polyline points="0.000,76.810 24.384,76.810" style="stroke-width:0.960" class="cell_U1A symbol none"/>
    <text class="pin_num_text" x="24.384" y="76.810" transform="rotate(0 24.384 76.810)" style="font-size:12.192" dominant-baseline="" text-anchor="end">2  </text>
    <text class="pin_name_text" x="24.384" y="76.810" transform="rotate(0 24.384 76.810)" style="font-size:12.192" dominant-baseline="central" text-anchor="start">  -</text>
    <g s:x="0.000" s:y="76.810" s:pid="2" s:position="left"/>
    <polyline points="146.304,52.426 121.920,52.426" style="stroke-width:0.960" class="cell_U1A symbol none"/>
    <text class="pin_num_text" x="121.920" y="52.426" transform="rotate(0 121.920 52.426)" style="font-size:12.192" dominant-baseline="" text-anchor="start">  1</text>
    <text class="pin_name_text" x="121.920" y="52.426" transform="rotate(0 121.920 52.426)" style="font-size:12.192" dominant-baseline="central" text-anchor="end">~  </text>
    <g s:x="146.304" s:y="52.426" s:pid="1" s:position="right"/>
    <text class="part_ref_text" x="73.152" y="3.658" transform="rotate(0 73.152 3.658)" style="font-size:12.192" dominant-baseline="central" text-anchor="start" s:attribute="ref">U1A</text>
    <text class="part_name_text" x="73.152" y="101.194" transform="rotate(0 73.152 101.194)" style="font-size:12.192" dominant-baseline="central" text-anchor="start" s:attribute="value">LM358</text>
    <text class="part_ref_text" x="73.152" y="3.658" transform="rotate(0 73.152 3.658)" style="font-size:12.192" dominant-baseline="central" text-anchor="start" s:attribute="ref">U1A</text>
    <text class="part_name_text" x="73.152" y="101.194" transform="rotate(0 73.152 101.194)" style="font-size:12.192" dominant-baseline="central" text-anchor="start" s:attribute="value">LM358</text>
  </g>
  <line x1="26.630000000000003" x2="26.630000000000003" y1="141.358" y2="176.74200000000002" class="net_1"/>
  <circle cx="26.630000000000003" cy="176.74200000000002" r="2" style="fill:#000" class="net_1"/>
  <line x1="26.630000000000003" x2="46.63" y1="176.74200000000002" y2="176.74200000000002" class="net_1"/>
  <line x1="46.63" x2="26.630000000000003" y1="176.74200000000002" y2="176.74200000000002" class="net_1"/>
  <circle cx="26.630000000000003" cy="176.74200000000002" r="2" style="fill:#000" class="net_1"/>
  <line x1="26.630000000000003" x2="26.630000000000003" y1="176.74200000000002" y2="274.894" class="net_1"/>
  <line x1="43.94500000000001" x2="26.630000000000003" y1="60.768" y2="60.768" class="net_3"/>
  <line x1="26.630000000000003" x2="26.630000000000003" y1="60.768" y2="92.59" class="net_3"/>
  <line x1="46.63" x2="36.63" y1="225.51000000000002" y2="225.51000000000002" class="net_2"/>
  <line x1="36.63" x2="36.63" y1="225.51000000000002" y2="264.894" class="net_2"/>
  <line x1="36.63" x2="202.934" y1="264.894" y2="264.894" class="net_2"/>
  <line x1="202.934" x2="202.934" y1="264.894" y2="201.126" class="net_2"/>
  <line x1="202.934" x2="192.934" y1="201.126" y2="201.12600000000003" class="net_2"/>
</svg>
